<svg width="48" height="47" viewBox="0 0 48 47" fill="none" xmlns="http://www.w3.org/2000/svg">
<g clip-path="url(#clip0)">
<path d="M16.4655 46.5517C18.5232 46.5517 20.4966 45.7342 21.9517 44.2792C23.4067 42.8242 24.2241 40.8508 24.2241 38.793V31.0344H16.4655C14.4078 31.0344 12.4343 31.8518 10.9793 33.3069C9.52429 34.7619 8.70686 36.7353 8.70686 38.793C8.70686 40.8508 9.52429 42.8242 10.9793 44.2792C12.4343 45.7342 14.4078 46.5517 16.4655 46.5517Z" fill="#0ACF83"/>
<path d="M8.70686 23.276C8.70686 21.2182 9.52429 19.2448 10.9793 17.7898C12.4343 16.3348 14.4078 15.5173 16.4655 15.5173H24.2241V31.0346H16.4655C14.4078 31.0346 12.4343 30.2172 10.9793 28.7621C9.52429 27.3071 8.70686 25.3337 8.70686 23.276V23.276Z" fill="#A259FF"/>
<path d="M8.70686 7.75862C8.70686 5.70091 9.52429 3.72747 10.9793 2.27245C12.4343 0.817424 14.4078 0 16.4655 0L24.2241 0V15.5172H16.4655C14.4078 15.5172 12.4343 14.6998 10.9793 13.2448C9.52429 11.7898 8.70686 9.81634 8.70686 7.75862V7.75862Z" fill="#F24E1E"/>
<path d="M24.2241 0H31.9827C34.0404 0 36.0139 0.817424 37.4689 2.27245C38.9239 3.72747 39.7413 5.70091 39.7413 7.75862C39.7413 9.81634 38.9239 11.7898 37.4689 13.2448C36.0139 14.6998 34.0404 15.5172 31.9827 15.5172H24.2241V0Z" fill="#FF7262"/>
<path d="M39.7413 23.276C39.7413 24.8105 39.2863 26.3105 38.4338 27.5864C37.5813 28.8623 36.3695 29.8567 34.9518 30.444C33.5341 31.0312 31.9741 31.1849 30.4691 30.8855C28.9641 30.5861 27.5816 29.8472 26.4965 28.7621C25.4115 27.6771 24.6725 26.2946 24.3732 24.7896C24.0738 23.2846 24.2275 21.7246 24.8147 20.3069C25.4019 18.8892 26.3964 17.6774 27.6723 16.8249C28.9482 15.9724 30.4482 15.5173 31.9827 15.5173C34.0404 15.5173 36.0139 16.3348 37.4689 17.7898C38.9239 19.2448 39.7413 21.2182 39.7413 23.276Z" fill="#1ABCFE"/>
</g>
<defs>
<clipPath id="clip0">
<rect width="46.5517" height="46.5517" fill="white" transform="translate(0.948242)"/>
</clipPath>
</defs>
</svg>
