<svg width="1000" height="325" viewBox="0 0 1000 325" fill="none" xmlns="http://www.w3.org/2000/svg">
<g clip-path="url(#clip0)">
<path fill-rule="evenodd" clip-rule="evenodd" d="M401.523 147.72H384.06V145.763C384.558 145.734 385.263 145.675 386.201 145.602C387.125 145.529 387.784 145.419 388.166 145.272C388.767 145.038 389.192 144.715 389.471 144.304C389.75 143.894 389.882 143.329 389.882 142.604V114.54C389.882 113.902 389.779 113.367 389.589 112.942C389.384 112.517 388.914 112.158 388.166 111.865C387.609 111.645 386.934 111.447 386.099 111.248C385.264 111.058 384.589 110.948 384.061 110.911V108.954H401.524V110.911C400.952 110.926 400.277 110.992 399.501 111.11C398.709 111.234 398.035 111.381 397.448 111.564C396.759 111.784 396.29 112.136 396.055 112.627C395.82 113.118 395.703 113.669 395.703 114.27V142.302C395.703 142.896 395.835 143.431 396.098 143.894C396.363 144.364 396.817 144.729 397.447 145.001C397.828 145.148 398.459 145.309 399.324 145.478C400.189 145.654 400.922 145.749 401.524 145.764V147.72H401.523Z" fill="white"/>
<path fill-rule="evenodd" clip-rule="evenodd" d="M446.124 110.911C445.61 110.926 444.833 111.073 443.778 111.344C442.737 111.622 441.975 111.901 441.52 112.195C440.86 112.649 440.42 113.522 440.2 114.811C439.966 116.109 439.863 117.751 439.863 119.73V148.116H437.503L414.015 116.388V136.372C414.015 138.615 414.147 140.33 414.44 141.532C414.719 142.735 415.159 143.592 415.745 144.098C416.156 144.501 417.036 144.875 418.34 145.22C419.659 145.564 420.525 145.748 420.95 145.763V147.72H405.057V145.763C405.555 145.734 406.376 145.55 407.535 145.235C408.707 144.912 409.426 144.626 409.719 144.377C410.35 143.863 410.789 143.086 411.024 142.039C411.259 140.99 411.376 139.209 411.376 136.672V117.597C411.376 116.762 411.229 115.919 410.936 115.083C410.658 114.247 410.262 113.602 409.764 113.147C409.118 112.547 408.224 112.033 407.109 111.608C405.981 111.175 405.086 110.948 404.383 110.911V108.954H415.437L437.225 138.476V120.068C437.225 117.817 437.092 116.088 436.799 114.878C436.506 113.669 436.08 112.863 435.539 112.466C435.025 112.122 434.19 111.785 433.046 111.455C431.888 111.125 431.008 110.949 430.407 110.912V108.955H446.124V110.911V110.911Z" fill="white"/>
<path fill-rule="evenodd" clip-rule="evenodd" d="M480.828 119.466H478.921C478.76 118.814 478.466 118.037 478.027 117.135C477.602 116.226 477.133 115.375 476.605 114.577C476.047 113.742 475.447 113 474.801 112.377C474.156 111.747 473.541 111.388 472.939 111.293C472.367 111.227 471.664 111.168 470.798 111.132C469.948 111.095 469.157 111.081 468.423 111.081H466.84V142.076C466.84 142.676 466.957 143.227 467.221 143.733C467.47 144.231 467.91 144.62 468.555 144.891C468.878 145.016 469.567 145.191 470.607 145.411C471.648 145.63 472.47 145.748 473.041 145.763V147.72H454.743V145.763C455.257 145.734 456.048 145.66 457.089 145.55C458.145 145.432 458.864 145.301 459.259 145.14C459.875 144.897 460.314 144.56 460.593 144.113C460.872 143.667 461.019 143.073 461.019 142.325V111.081H459.435C458.864 111.081 458.16 111.095 457.324 111.117C456.488 111.146 455.682 111.205 454.92 111.293C454.318 111.373 453.688 111.733 453.043 112.377C452.398 113.022 451.797 113.755 451.254 114.577C450.711 115.398 450.228 116.27 449.802 117.186C449.392 118.11 449.099 118.865 448.937 119.466H447.031V108.954H480.827V119.466H480.828Z" fill="white"/>
<path fill-rule="evenodd" clip-rule="evenodd" d="M516.5 136.313L515.767 147.72H483.599V145.763C484.156 145.734 484.875 145.652 485.798 145.535C486.708 145.418 487.308 145.293 487.572 145.162C488.158 144.891 488.569 144.538 488.804 144.099C489.024 143.667 489.141 143.109 489.141 142.435V114.592C489.141 113.992 489.038 113.463 488.833 113.001C488.642 112.532 488.217 112.158 487.572 111.865C487.088 111.63 486.414 111.418 485.593 111.234C484.758 111.058 484.098 110.948 483.599 110.911V108.954H513.597V118.294H511.515C511.164 116.916 510.372 115.45 509.169 113.896C507.952 112.341 506.809 111.498 505.724 111.352C505.152 111.278 504.477 111.227 503.7 111.191C502.923 111.154 502.029 111.133 501.032 111.133H494.962V126.52H499.316C500.709 126.52 501.722 126.388 502.366 126.125C503.011 125.86 503.583 125.421 504.067 124.805C504.462 124.278 504.799 123.573 505.093 122.693C505.372 121.806 505.563 120.978 505.65 120.201H507.717V135.361H505.65C505.576 134.489 505.371 133.565 505.064 132.59C504.741 131.622 504.418 130.912 504.067 130.478C503.509 129.767 502.865 129.305 502.146 129.085C501.442 128.865 500.489 128.755 499.315 128.755H494.961V140.382C494.961 141.547 495.034 142.463 495.21 143.138C495.371 143.812 495.679 144.318 496.163 144.663C496.633 145.015 497.278 145.235 498.099 145.337C498.92 145.432 500.078 145.484 501.589 145.484C502.19 145.484 502.981 145.484 503.964 145.484C504.946 145.484 505.767 145.447 506.442 145.374C507.131 145.301 507.849 145.169 508.582 144.978C509.315 144.788 509.843 144.53 510.151 144.201C510.986 143.329 511.866 142.002 512.775 140.228C513.699 138.453 514.285 137.148 514.535 136.313H516.5V136.313Z" fill="white"/>
<path fill-rule="evenodd" clip-rule="evenodd" d="M543.917 118.829C543.917 116.484 543.242 114.621 541.893 113.25C540.559 111.879 538.653 111.19 536.19 111.19H531.557V127.809H535.134C537.641 127.809 539.738 127.003 541.41 125.39C543.082 123.784 543.917 121.592 543.917 118.829ZM558.301 147.72H547.847C545.545 144.099 543.449 140.968 541.586 138.322C539.725 135.683 537.7 132.963 535.516 130.155H531.558V142.434C531.558 143.072 531.66 143.629 531.851 144.112C532.057 144.596 532.482 144.963 533.142 145.22C533.465 145.345 534.036 145.469 534.857 145.572C535.678 145.682 536.367 145.748 536.925 145.763V147.72H520.59V145.763C521.03 145.734 521.646 145.667 522.466 145.572C523.287 145.484 523.874 145.366 524.196 145.22C524.739 144.986 525.12 144.634 525.369 144.179C525.619 143.725 525.736 143.145 525.736 142.434V114.43C525.736 113.792 525.648 113.228 525.472 112.737C525.281 112.245 524.856 111.872 524.196 111.622C523.742 111.454 523.155 111.307 522.437 111.168C521.704 111.029 521.088 110.948 520.59 110.911V108.954H538.463C540.105 108.954 541.645 109.123 543.081 109.46C544.518 109.798 545.808 110.34 546.982 111.081C548.11 111.813 549.005 112.767 549.679 113.939C550.354 115.112 550.691 116.527 550.691 118.191C550.691 119.68 550.456 120.999 550.002 122.15C549.548 123.294 548.873 124.291 547.979 125.127C547.158 125.911 546.175 126.593 545.032 127.164C543.874 127.736 542.613 128.227 541.22 128.623C543.141 131.159 544.724 133.285 546 135.015C547.261 136.746 548.815 138.85 550.647 141.328C551.454 142.42 552.173 143.226 552.817 143.739C553.462 144.26 554.108 144.678 554.753 145.008C555.222 145.242 555.808 145.419 556.527 145.55C557.231 145.675 557.832 145.748 558.302 145.763V147.72H558.301Z" fill="white"/>
<path fill-rule="evenodd" clip-rule="evenodd" d="M580.293 131.893L574.414 116.828L568.623 131.893H580.293ZM595.878 147.72H579.765V145.763C581.188 145.675 582.36 145.491 583.298 145.22C584.236 144.949 584.706 144.612 584.706 144.208C584.706 144.047 584.692 143.842 584.663 143.607C584.619 143.372 584.575 143.16 584.502 142.984L581.291 134.296H567.685C567.172 135.573 566.761 136.679 566.439 137.624C566.116 138.57 565.822 139.45 565.573 140.249C565.339 141.034 565.177 141.664 565.075 142.163C564.987 142.654 564.943 143.049 564.943 143.358C564.943 144.091 565.515 144.655 566.658 145.058C567.816 145.455 569.107 145.689 570.544 145.762V147.719H555.927V145.762C556.41 145.725 556.996 145.622 557.701 145.454C558.419 145.277 559.006 145.043 559.461 144.757C560.179 144.259 560.75 143.745 561.147 143.21C561.558 142.675 561.938 141.927 562.319 140.982C564.27 136.121 566.424 130.66 568.771 124.59C571.116 118.527 573.213 113.124 575.06 108.389H577.244L590.161 141.832C590.439 142.536 590.747 143.115 591.099 143.555C591.436 143.988 591.92 144.413 592.551 144.838C592.961 145.088 593.519 145.301 594.179 145.476C594.853 145.652 595.425 145.747 595.879 145.762V147.72H595.878Z" fill="white"/>
<path fill-rule="evenodd" clip-rule="evenodd" d="M614.411 148.673C612.095 148.673 609.881 148.218 607.769 147.309C605.643 146.393 603.766 145.081 602.139 143.365C600.527 141.65 599.221 139.561 598.269 137.09C597.301 134.619 596.817 131.834 596.817 128.732C596.817 125.63 597.301 122.823 598.24 120.294C599.192 117.773 600.498 115.595 602.169 113.777C603.826 111.966 605.776 110.574 608.034 109.591C610.291 108.601 612.696 108.111 615.262 108.111C617.168 108.111 618.898 108.345 620.437 108.822C621.977 109.291 623.458 109.951 624.85 110.808L625.964 108.954H628.149L628.383 122.773H626.14C625.847 121.424 625.407 119.972 624.835 118.403C624.249 116.827 623.575 115.5 622.798 114.408C621.918 113.177 620.892 112.209 619.689 111.512C618.487 110.808 617.123 110.464 615.584 110.464C613.825 110.464 612.182 110.853 610.672 111.637C609.163 112.422 607.843 113.58 606.743 115.112C605.688 116.586 604.866 118.462 604.265 120.742C603.663 123.022 603.371 125.565 603.371 128.373C603.371 130.851 603.679 133.124 604.309 135.191C604.925 137.265 605.819 139.076 606.977 140.645C608.15 142.2 609.513 143.409 611.097 144.281C612.695 145.161 614.454 145.593 616.419 145.593C617.885 145.593 619.234 145.366 620.465 144.897C621.711 144.436 622.781 143.82 623.676 143.05C624.584 142.251 625.392 141.335 626.066 140.316C626.755 139.297 627.327 138.183 627.767 136.981L629.835 137.963C628.266 141.805 626.199 144.553 623.618 146.204C621.038 147.852 617.959 148.673 614.411 148.673Z" fill="white"/>
<path fill-rule="evenodd" clip-rule="evenodd" d="M664.803 119.466H662.897C662.736 118.814 662.442 118.037 662.002 117.135C661.577 116.226 661.093 115.375 660.565 114.577C660.022 113.742 659.421 113 658.776 112.377C658.131 111.747 657.516 111.388 656.915 111.293C656.342 111.227 655.624 111.168 654.774 111.132C653.923 111.095 653.132 111.081 652.398 111.081H650.815V142.076C650.815 142.676 650.932 143.227 651.196 143.733C651.446 144.231 651.899 144.62 652.53 144.891C652.853 145.016 653.542 145.191 654.582 145.411C655.623 145.63 656.444 145.748 657.016 145.763V147.72H638.733V145.763C639.231 145.734 640.024 145.66 641.065 145.55C642.12 145.432 642.839 145.301 643.249 145.14C643.835 144.897 644.289 144.56 644.568 144.113C644.847 143.667 644.993 143.073 644.993 142.325V111.081H643.41C642.838 111.081 642.134 111.095 641.298 111.117C640.463 111.146 639.656 111.205 638.894 111.293C638.293 111.373 637.662 111.733 637.017 112.377C636.372 113.022 635.771 113.755 635.228 114.577C634.685 115.399 634.202 116.27 633.777 117.186C633.366 118.11 633.073 118.865 632.911 119.466H631.005V108.954H664.801V119.466H664.803Z" fill="white"/>
<path fill-rule="evenodd" clip-rule="evenodd" d="M684.86 147.72H667.413V145.763C667.897 145.734 668.616 145.675 669.539 145.602C670.463 145.529 671.123 145.419 671.504 145.272C672.105 145.038 672.545 144.715 672.824 144.304C673.088 143.894 673.22 143.329 673.22 142.604V114.54C673.22 113.902 673.131 113.367 672.927 112.942C672.722 112.517 672.253 112.158 671.504 111.865C670.962 111.645 670.273 111.447 669.451 111.248C668.616 111.058 667.941 110.948 667.413 110.911V108.954H684.86V110.911C684.304 110.926 683.629 110.992 682.837 111.11C682.06 111.234 681.371 111.381 680.799 111.564C680.11 111.784 679.641 112.136 679.407 112.627C679.158 113.118 679.041 113.669 679.041 114.27V142.302C679.041 142.896 679.173 143.431 679.437 143.894C679.715 144.364 680.155 144.729 680.8 145.001C681.181 145.148 681.797 145.309 682.663 145.478C683.528 145.654 684.261 145.749 684.861 145.764V147.72H684.86Z" fill="white"/>
<path fill-rule="evenodd" clip-rule="evenodd" d="M716.984 141.064C717.996 139.4 718.744 137.523 719.213 135.419C719.668 133.316 719.902 130.969 719.902 128.381C719.902 125.713 719.638 123.264 719.125 121.036C718.612 118.808 717.849 116.909 716.838 115.34C715.841 113.786 714.58 112.577 713.07 111.711C711.56 110.839 709.829 110.406 707.879 110.406C705.695 110.406 703.833 110.912 702.293 111.916C700.769 112.921 699.522 114.262 698.555 115.94C697.646 117.546 696.956 119.43 696.517 121.585C696.062 123.74 695.842 126.005 695.842 128.38C695.842 131.005 696.077 133.381 696.56 135.499C697.029 137.617 697.777 139.501 698.804 141.143C699.786 142.749 701.018 144.01 702.513 144.911C704.008 145.813 705.797 146.267 707.879 146.267C709.83 146.267 711.589 145.812 713.143 144.896C714.712 143.988 716.002 142.705 716.984 141.064ZM721.046 113.529C722.762 115.311 724.096 117.466 725.063 119.995C726.031 122.524 726.5 125.317 726.5 128.381C726.5 131.461 726.017 134.261 725.034 136.775C724.051 139.29 722.688 141.438 720.928 143.205C719.242 144.957 717.278 146.305 715.034 147.251C712.79 148.204 710.401 148.673 707.878 148.673C705.181 148.673 702.688 148.167 700.402 147.155C698.115 146.144 696.149 144.736 694.522 142.933C692.88 141.158 691.589 139.011 690.651 136.489C689.713 133.96 689.243 131.262 689.243 128.381C689.243 125.222 689.727 122.415 690.724 119.936C691.707 117.466 693.055 115.333 694.786 113.529C696.501 111.74 698.495 110.37 700.753 109.424C703.026 108.478 705.401 108.001 707.878 108.001C710.444 108.001 712.864 108.485 715.136 109.453C717.424 110.42 719.389 111.776 721.046 113.529Z" fill="white"/>
<path fill-rule="evenodd" clip-rule="evenodd" d="M771.159 110.911C770.646 110.926 769.87 111.073 768.814 111.344C767.759 111.622 767.011 111.901 766.556 112.195C765.897 112.649 765.456 113.522 765.222 114.811C765.002 116.109 764.885 117.751 764.885 119.73V148.116H762.524L739.036 116.388V136.372C739.036 138.615 739.183 140.33 739.462 141.532C739.741 142.735 740.181 143.592 740.767 144.098C741.192 144.501 742.057 144.875 743.377 145.22C744.696 145.564 745.561 145.748 745.972 145.763L745.986 147.72H730.093V145.763C730.577 145.734 731.412 145.55 732.571 145.235C733.729 144.912 734.463 144.626 734.741 144.377C735.386 143.863 735.826 143.086 736.061 142.039C736.295 140.99 736.412 139.209 736.412 136.672V117.597C736.412 116.762 736.266 115.919 735.973 115.083C735.68 114.247 735.284 113.602 734.8 113.147C734.141 112.547 733.26 112.033 732.131 111.608C731.017 111.175 730.108 110.948 729.419 110.911V108.954H740.473L762.261 138.476V120.068C762.261 117.817 762.114 116.088 761.821 114.878C761.528 113.669 761.117 112.863 760.56 112.466C760.062 112.122 759.226 111.785 758.068 111.455C756.909 111.125 756.03 110.949 755.428 110.912V108.955H771.16V110.911H771.159Z" fill="white"/>
<path fill-rule="evenodd" clip-rule="evenodd" d="M818.253 128.557C818.253 125.954 817.916 123.601 817.227 121.497C816.538 119.393 815.526 117.56 814.206 115.992C812.944 114.503 811.406 113.331 809.588 112.473C807.755 111.615 805.732 111.19 803.503 111.19C802.755 111.19 801.92 111.205 800.982 111.234C800.044 111.256 799.354 111.277 798.899 111.3V141.085C798.899 142.749 799.383 143.893 800.337 144.531C801.305 145.169 802.785 145.485 804.78 145.485C807.081 145.485 809.104 145.075 810.82 144.261C812.55 143.44 813.943 142.303 815.013 140.844C816.142 139.312 816.963 137.545 817.477 135.537C818.004 133.52 818.253 131.196 818.253 128.557ZM824.968 128.571C824.968 131.863 824.353 134.729 823.121 137.148C821.875 139.575 820.263 141.554 818.283 143.108C816.289 144.654 814.031 145.813 811.538 146.575C809.046 147.337 806.466 147.719 803.811 147.719H787.757V145.762C788.299 145.762 788.988 145.71 789.838 145.615C790.689 145.513 791.246 145.403 791.524 145.271C792.066 145.037 792.462 144.685 792.712 144.223C792.961 143.761 793.079 143.197 793.079 142.545V114.592C793.079 113.977 792.976 113.42 792.756 112.929C792.55 112.437 792.125 112.049 791.495 111.756C790.923 111.485 790.308 111.286 789.648 111.154C788.989 111.03 788.417 110.949 787.933 110.912V108.955H804.882C807.214 108.955 809.515 109.314 811.773 110.033C814.031 110.751 815.996 111.719 817.667 112.943C819.955 114.563 821.743 116.682 823.034 119.307C824.323 121.93 824.968 125.017 824.968 128.571Z" fill="white"/>
<path fill-rule="evenodd" clip-rule="evenodd" d="M862.37 136.313L861.637 147.72H829.469V145.763C830.026 145.734 830.745 145.652 831.668 145.535C832.578 145.418 833.179 145.293 833.442 145.162C834.028 144.891 834.439 144.538 834.674 144.099C834.894 143.667 835.011 143.109 835.011 142.435V114.592C835.011 113.992 834.908 113.463 834.703 113.001C834.512 112.532 834.087 112.158 833.442 111.865C832.959 111.63 832.298 111.418 831.463 111.234C830.628 111.058 829.968 110.948 829.469 110.911V108.954H859.467V118.294H857.4C857.034 116.916 856.242 115.45 855.04 113.896C853.824 112.341 852.68 111.498 851.595 111.352C851.023 111.278 850.349 111.227 849.571 111.191C848.794 111.154 847.9 111.133 846.903 111.133H840.833V126.52H845.188C846.58 126.52 847.593 126.388 848.237 126.125C848.883 125.86 849.454 125.421 849.938 124.805C850.333 124.278 850.67 123.573 850.964 122.693C851.243 121.806 851.418 120.978 851.521 120.201H853.588V135.361H851.521C851.447 134.489 851.258 133.565 850.934 132.59C850.611 131.622 850.289 130.912 849.937 130.478C849.38 129.767 848.734 129.305 848.016 129.085C847.313 128.865 846.359 128.755 845.187 128.755H840.832V140.382C840.832 141.547 840.906 142.463 841.066 143.138C841.242 143.812 841.55 144.318 842.034 144.663C842.504 145.015 843.149 145.235 843.97 145.337C844.791 145.432 845.949 145.484 847.459 145.484C848.06 145.484 848.851 145.484 849.834 145.484C850.817 145.484 851.638 145.447 852.312 145.374C853.001 145.301 853.719 145.169 854.452 144.978C855.185 144.788 855.713 144.53 856.021 144.201C856.857 143.329 857.736 142.002 858.645 140.228C859.57 138.453 860.156 137.148 860.405 136.313H862.37V136.313Z" fill="white"/>
<path fill-rule="evenodd" clip-rule="evenodd" d="M890.521 129.92C891.342 130.83 891.944 131.826 892.339 132.912C892.735 133.997 892.926 135.258 892.926 136.702C892.926 140.126 891.665 142.948 889.129 145.177C886.607 147.398 883.455 148.505 879.701 148.505C877.986 148.505 876.255 148.234 874.526 147.691C872.796 147.148 871.3 146.496 870.039 145.734L868.866 147.72H866.681L866.301 134.466H868.529C868.984 136.101 869.511 137.575 870.127 138.894C870.743 140.213 871.534 141.438 872.546 142.589C873.485 143.66 874.599 144.51 875.86 145.148C877.121 145.786 878.587 146.101 880.273 146.101C881.519 146.101 882.619 145.94 883.557 145.61C884.496 145.287 885.258 144.818 885.83 144.224C886.417 143.623 886.842 142.919 887.135 142.112C887.414 141.298 887.56 140.367 887.56 139.312C887.56 137.772 887.12 136.328 886.241 134.994C885.376 133.66 884.072 132.649 882.341 131.96C881.153 131.483 879.804 130.955 878.28 130.383C876.74 129.811 875.421 129.269 874.321 128.756C872.136 127.774 870.435 126.483 869.233 124.885C868.017 123.294 867.415 121.213 867.415 118.639C867.415 117.165 867.709 115.787 868.309 114.512C868.91 113.237 869.775 112.093 870.875 111.096C871.931 110.143 873.177 109.402 874.614 108.867C876.051 108.325 877.562 108.061 879.129 108.061C880.904 108.061 882.502 108.332 883.909 108.889C885.331 109.438 886.606 110.083 887.78 110.809L888.894 108.955H891.079L891.298 121.82H889.07C888.659 120.346 888.22 118.932 887.721 117.59C887.208 116.242 886.563 115.024 885.77 113.932C884.978 112.869 884.026 112.033 882.897 111.403C881.768 110.779 880.39 110.464 878.748 110.464C877.018 110.464 875.552 111.014 874.335 112.128C873.118 113.235 872.502 114.591 872.502 116.189C872.502 117.86 872.898 119.245 873.675 120.345C874.467 121.445 875.596 122.354 877.092 123.058C878.426 123.695 879.731 124.245 881.006 124.715C882.297 125.177 883.528 125.675 884.73 126.203C885.83 126.68 886.871 127.215 887.882 127.817C888.893 128.417 889.773 129.122 890.521 129.92Z" fill="white"/>
<path fill-rule="evenodd" clip-rule="evenodd" d="M914.742 147.72H897.28V145.763C897.778 145.734 898.497 145.675 899.421 145.602C900.344 145.529 901.005 145.419 901.386 145.272C901.987 145.038 902.427 144.715 902.691 144.304C902.969 143.894 903.101 143.329 903.101 142.604V114.54C903.101 113.902 903.013 113.367 902.808 112.942C902.603 112.517 902.134 112.158 901.386 111.865C900.843 111.645 900.154 111.447 899.318 111.248C898.497 111.058 897.808 110.948 897.28 110.911V108.954H914.742V110.911C914.185 110.926 913.51 110.992 912.719 111.11C911.941 111.234 911.253 111.381 910.681 111.564C909.977 111.784 909.523 112.136 909.274 112.627C909.039 113.118 908.922 113.669 908.922 114.27V142.302C908.922 142.896 909.055 143.431 909.318 143.894C909.582 144.364 910.036 144.729 910.682 145.001C911.063 145.148 911.679 145.309 912.544 145.478C913.41 145.654 914.142 145.749 914.743 145.764V147.72H914.742Z" fill="white"/>
<path fill-rule="evenodd" clip-rule="evenodd" d="M957.114 132.23C956.674 132.282 956.088 132.37 955.354 132.487C954.622 132.604 954.021 132.773 953.566 132.993C953.023 133.264 952.642 133.66 952.422 134.159C952.188 134.665 952.07 135.251 952.07 135.925L952.085 138.945C952.085 141.137 952.085 142.618 952.114 143.38C952.143 144.149 952.173 144.78 952.217 145.271C949.797 146.371 947.378 147.214 944.988 147.793C942.584 148.38 940.223 148.673 937.921 148.673C935.443 148.673 933.053 148.21 930.766 147.28C928.479 146.349 926.47 145.029 924.769 143.314C923.039 141.583 921.661 139.473 920.649 136.995C919.637 134.517 919.124 131.746 919.124 128.682C919.124 125.728 919.608 122.986 920.575 120.464C921.557 117.934 922.921 115.743 924.71 113.88C926.44 112.062 928.493 110.64 930.883 109.628C933.287 108.616 935.838 108.111 938.565 108.111C940.75 108.111 942.656 108.374 944.269 108.902C945.882 109.429 947.318 110.06 948.55 110.808L949.664 108.954H951.848L952.083 122.494H949.84C949.459 121.006 948.975 119.54 948.418 118.095C947.861 116.65 947.127 115.361 946.233 114.216C945.339 113.073 944.254 112.164 942.978 111.483C941.687 110.8 940.163 110.463 938.374 110.463C936.439 110.463 934.694 110.859 933.17 111.65C931.644 112.442 930.311 113.622 929.182 115.191C928.082 116.709 927.217 118.593 926.616 120.858C926.03 123.116 925.722 125.645 925.722 128.431C925.722 130.894 926.014 133.218 926.602 135.395C927.202 137.573 928.053 139.456 929.182 141.04C930.311 142.668 931.718 143.943 933.419 144.873C935.105 145.804 937.026 146.266 939.166 146.266C940.779 146.266 942.231 146.017 943.55 145.526C944.87 145.027 945.793 144.507 946.35 143.957C946.497 143.004 946.569 142.044 946.585 141.077C946.585 140.102 946.585 139.273 946.585 138.599V136.458C946.585 135.689 946.482 135.007 946.277 134.414C946.071 133.813 945.631 133.38 944.972 133.102C944.371 132.83 943.55 132.625 942.524 132.486C941.497 132.347 940.691 132.259 940.104 132.229V130.264H957.111V132.23H957.114Z" fill="white"/>
<path fill-rule="evenodd" clip-rule="evenodd" d="M999.912 110.911C999.414 110.926 998.622 111.073 997.567 111.344C996.526 111.622 995.763 111.901 995.309 112.195C994.664 112.649 994.224 113.522 993.989 114.811C993.769 116.109 993.652 117.751 993.652 119.73V148.116H991.292L967.803 116.388V136.372C967.803 138.615 967.95 140.33 968.229 141.532C968.507 142.735 968.947 143.592 969.534 144.098C969.96 144.501 970.825 144.875 972.129 145.22C973.449 145.564 974.313 145.748 974.739 145.763V147.72H958.846V145.763C959.344 145.734 960.166 145.55 961.324 145.235C962.496 144.912 963.215 144.626 963.508 144.377C964.153 143.863 964.579 143.086 964.813 142.039C965.062 140.99 965.179 139.209 965.179 136.672V117.597C965.179 116.762 965.033 115.919 964.739 115.083C964.446 114.247 964.05 113.602 963.567 113.147C962.907 112.547 962.013 112.033 960.898 111.608C959.784 111.175 958.875 110.948 958.17 110.911V108.954H969.225L991.028 138.476V120.068C991.028 117.817 990.881 116.088 990.588 114.878C990.294 113.669 989.87 112.863 989.326 112.466C988.814 112.122 987.992 111.785 986.834 111.455C985.676 111.125 984.796 110.949 984.195 110.912V108.955H999.913V110.911H999.912Z" fill="white"/>
<path fill-rule="evenodd" clip-rule="evenodd" d="M433.558 189.033H430.186C429.556 186.702 428.265 184.209 426.301 181.556C424.336 178.902 422.46 177.443 420.656 177.172C419.733 177.055 418.648 176.966 417.387 176.907C416.141 176.849 414.704 176.82 413.12 176.82H402.564V202.155H409.807C412.007 202.155 413.707 201.928 414.924 201.466C416.141 201.004 417.167 200.301 418.032 199.347C418.634 198.695 419.161 197.676 419.66 196.29C420.144 194.912 420.467 193.431 420.614 191.855H423.986V216.736H420.614C420.526 215.431 420.217 213.943 419.705 212.272C419.177 210.608 418.635 209.405 418.033 208.658C417.154 207.558 416.025 206.803 414.677 206.407C413.328 206.004 411.715 205.799 409.808 205.799H402.565V227.506C402.565 228.481 402.755 229.36 403.151 230.131C403.547 230.901 404.236 231.516 405.232 231.993C405.672 232.198 406.655 232.448 408.165 232.748C409.66 233.042 410.804 233.202 411.596 233.239V236.421H384.06V233.232C384.955 233.173 386.143 233.078 387.638 232.946C389.133 232.814 390.101 232.645 390.541 232.433C391.436 232.052 392.08 231.48 392.476 230.725C392.887 229.97 393.093 229.054 393.093 227.99V182.458C393.093 181.483 392.917 180.618 392.594 179.863C392.272 179.1 391.583 178.492 390.542 178.015C389.736 177.626 388.651 177.289 387.302 176.989C385.953 176.695 384.868 176.512 384.061 176.454V173.265H433.559V189.033H433.558Z" fill="white"/>
<path fill-rule="evenodd" clip-rule="evenodd" d="M483.54 225.576C485.197 222.864 486.399 219.8 487.162 216.384C487.924 212.96 488.291 209.134 488.291 204.911C488.291 200.564 487.881 196.583 487.03 192.947C486.18 189.318 484.949 186.224 483.306 183.666C481.679 181.137 479.626 179.165 477.164 177.757C474.7 176.342 471.885 175.638 468.704 175.638C465.141 175.638 462.106 176.452 459.614 178.087C457.122 179.722 455.097 181.913 453.514 184.648C452.033 187.265 450.934 190.329 450.201 193.841C449.468 197.353 449.116 201.047 449.116 204.91C449.116 209.191 449.497 213.062 450.26 216.515C451.037 219.968 452.254 223.032 453.925 225.708C455.524 228.325 457.546 230.37 459.98 231.844C462.414 233.318 465.317 234.05 468.704 234.05C471.885 234.05 474.744 233.31 477.296 231.822C479.845 230.335 481.927 228.253 483.54 225.576ZM490.152 180.719C492.938 183.63 495.123 187.141 496.691 191.254C498.26 195.366 499.052 199.919 499.052 204.911C499.052 209.932 498.246 214.493 496.648 218.59C495.05 222.688 492.821 226.177 489.977 229.059C487.22 231.911 484.01 234.109 480.359 235.656C476.708 237.204 472.822 237.973 468.702 237.973C464.318 237.973 460.257 237.144 456.533 235.502C452.809 233.853 449.613 231.551 446.944 228.611C444.276 225.73 442.179 222.233 440.64 218.121C439.115 214.008 438.353 209.602 438.353 204.91C438.353 199.771 439.159 195.19 440.757 191.164C442.355 187.139 444.569 183.657 447.384 180.717C450.17 177.807 453.41 175.579 457.105 174.032C460.8 172.485 464.67 171.716 468.702 171.716C472.881 171.716 476.825 172.5 480.534 174.077C484.244 175.654 487.456 177.868 490.152 180.719Z" fill="white"/>
<path fill-rule="evenodd" clip-rule="evenodd" d="M570.866 176.453C570.045 176.482 568.828 176.665 567.23 176.988C565.631 177.318 564.342 177.809 563.33 178.462C562.318 179.143 561.629 180.551 561.248 182.692C560.852 184.825 560.662 187.436 560.662 190.521V217.983C560.662 221.487 559.944 224.53 558.493 227.11C557.041 229.691 555.12 231.817 552.745 233.481C550.414 235.079 547.936 236.23 545.341 236.926C542.746 237.623 540.268 237.975 537.893 237.975C534.096 237.975 530.723 237.477 527.748 236.487C524.786 235.49 522.294 234.148 520.284 232.455C518.29 230.762 516.795 228.826 515.783 226.649C514.786 224.465 514.272 222.185 514.272 219.816V182.466C514.272 181.425 514.097 180.56 513.76 179.863C513.408 179.166 512.719 178.522 511.663 177.928C510.915 177.51 509.947 177.173 508.774 176.931C507.602 176.675 506.648 176.513 505.885 176.455V173.266H532.145V176.455C531.309 176.484 530.282 176.623 529.022 176.858C527.776 177.092 526.852 177.319 526.265 177.525C525.268 177.884 524.593 178.47 524.256 179.307C523.919 180.135 523.758 181.036 523.758 182.019V216.899C523.758 218.592 523.934 220.366 524.315 222.222C524.682 224.069 525.43 225.799 526.529 227.404C527.687 229.032 529.271 230.366 531.28 231.406C533.274 232.44 536.015 232.96 539.505 232.96C542.789 232.96 545.545 232.44 547.759 231.406C549.987 230.365 551.747 229.002 553.022 227.308C554.253 225.71 555.118 224.031 555.617 222.286C556.13 220.534 556.38 218.768 556.38 216.987V191.094C556.38 187.802 556.146 185.112 555.662 183.023C555.193 180.933 554.49 179.555 553.565 178.903C552.524 178.162 551.102 177.583 549.298 177.165C547.495 176.754 546.116 176.512 545.178 176.454V173.265H570.865V176.453H570.866Z" fill="white"/>
<path fill-rule="evenodd" clip-rule="evenodd" d="M640.699 176.453C639.863 176.482 638.588 176.724 636.873 177.171C635.157 177.611 633.94 178.072 633.192 178.549C632.137 179.289 631.403 180.711 631.037 182.822C630.671 184.926 630.48 187.595 630.48 190.828V237.064H626.653L588.387 185.374V217.931C588.387 221.581 588.607 224.381 589.076 226.339C589.53 228.296 590.234 229.689 591.202 230.517C591.876 231.169 593.298 231.778 595.439 232.342C597.58 232.906 599.002 233.199 599.677 233.236L599.691 236.418H573.799V233.229C574.591 233.17 575.94 232.885 577.846 232.364C579.737 231.844 580.91 231.382 581.394 230.964C582.421 230.135 583.139 228.867 583.52 227.166C583.901 225.458 584.092 222.548 584.092 218.428L584.107 187.345C584.107 185.981 583.857 184.617 583.389 183.254C582.919 181.891 582.274 180.842 581.468 180.102C580.397 179.119 578.961 178.284 577.128 177.587C575.31 176.891 573.829 176.509 572.7 176.451V173.262H590.705L626.201 221.36V191.377C626.201 187.704 625.966 184.889 625.497 182.917C625.013 180.945 624.339 179.64 623.445 178.988C622.624 178.423 621.261 177.873 619.384 177.338C617.492 176.81 616.07 176.51 615.088 176.452V173.263H640.702V176.453H640.699Z" fill="white"/>
<path fill-rule="evenodd" clip-rule="evenodd" d="M695.402 205.205C695.402 200.96 694.831 197.126 693.716 193.703C692.587 190.28 690.945 187.288 688.79 184.737C686.752 182.311 684.244 180.398 681.268 179.004C678.292 177.611 674.993 176.914 671.357 176.914C670.141 176.914 668.777 176.936 667.252 176.98C665.728 177.024 664.598 177.06 663.866 177.09V225.613C663.866 228.311 664.643 230.188 666.212 231.221C667.781 232.261 670.185 232.775 673.44 232.775C677.194 232.775 680.478 232.108 683.293 230.774C686.093 229.44 688.381 227.593 690.125 225.217C691.958 222.724 693.292 219.844 694.128 216.566C694.978 213.29 695.402 209.5 695.402 205.205ZM706.341 205.227C706.341 210.593 705.329 215.256 703.306 219.2C701.297 223.144 698.673 226.377 695.447 228.906C692.178 231.427 688.512 233.312 684.451 234.55C680.389 235.804 676.196 236.42 671.872 236.42H645.73V233.231C646.595 233.231 647.709 233.158 649.102 232.989C650.48 232.828 651.389 232.644 651.844 232.432C652.738 232.051 653.383 231.479 653.779 230.724C654.19 229.969 654.381 229.053 654.381 227.989V182.457C654.381 181.453 654.22 180.551 653.867 179.745C653.516 178.946 652.841 178.307 651.815 177.831C650.876 177.391 649.879 177.061 648.795 176.856C647.71 176.643 646.786 176.511 645.994 176.453V173.264H673.6C677.398 173.264 681.151 173.851 684.831 175.023C688.511 176.196 691.708 177.779 694.45 179.767C698.159 182.405 701.062 185.866 703.174 190.132C705.284 194.407 706.326 199.435 706.341 205.227Z" fill="white"/>
<path fill-rule="evenodd" clip-rule="evenodd" d="M747.701 210.629L738.127 186.1L728.685 210.629H747.701ZM773.095 236.42H746.851V233.231C749.153 233.084 751.073 232.791 752.613 232.344C754.138 231.904 754.9 231.355 754.9 230.702C754.9 230.431 754.871 230.108 754.812 229.72C754.753 229.331 754.665 228.994 754.548 228.694L749.314 214.553H727.146C726.325 216.627 725.65 218.438 725.122 219.977C724.609 221.524 724.14 222.946 723.714 224.251C723.333 225.527 723.069 226.56 722.923 227.359C722.776 228.166 722.688 228.818 722.688 229.317C722.688 230.504 723.626 231.428 725.503 232.08C727.365 232.725 729.476 233.114 731.822 233.238V236.42H708.011V233.231C708.788 233.172 709.756 233.004 710.9 232.725C712.058 232.439 713.011 232.065 713.759 231.588C714.947 230.782 715.855 229.946 716.515 229.073C717.175 228.194 717.805 226.992 718.436 225.444C721.603 217.527 725.107 208.62 728.933 198.745C732.76 188.863 736.176 180.066 739.167 172.354H742.73L763.784 226.822C764.224 227.98 764.737 228.919 765.294 229.63C765.866 230.341 766.643 231.038 767.654 231.72C768.343 232.137 769.223 232.482 770.323 232.768C771.423 233.046 772.346 233.2 773.094 233.237V236.42H773.095Z" fill="white"/>
<path fill-rule="evenodd" clip-rule="evenodd" d="M826.758 190.404H823.664C823.386 189.326 822.901 188.066 822.212 186.592C821.509 185.126 820.731 183.74 819.866 182.428C818.987 181.064 818.005 179.87 816.948 178.843C815.908 177.824 814.882 177.238 813.899 177.084C812.99 176.966 811.817 176.878 810.424 176.82C809.032 176.761 807.741 176.732 806.554 176.732H803.973V227.227C803.973 228.209 804.179 229.104 804.59 229.917C805 230.738 805.733 231.369 806.759 231.808C807.302 232.021 808.416 232.299 810.117 232.659C811.818 233.011 813.137 233.201 814.09 233.238V236.42H784.283V233.231C785.119 233.172 786.38 233.055 788.095 232.879C789.796 232.703 790.984 232.476 791.643 232.212C792.625 231.824 793.343 231.266 793.798 230.541C794.267 229.815 794.487 228.84 794.487 227.631V176.732H791.906C790.983 176.732 789.838 176.754 788.475 176.798C787.111 176.841 785.806 176.937 784.56 177.084C783.578 177.209 782.566 177.787 781.51 178.843C780.454 179.899 779.487 181.093 778.593 182.428C777.698 183.762 776.907 185.185 776.232 186.68C775.543 188.183 775.074 189.421 774.81 190.404H771.701V173.264H826.757V190.404H826.758Z" fill="white"/>
<path fill-rule="evenodd" clip-rule="evenodd" d="M859.438 236.42H831.009V233.231C831.801 233.172 832.96 233.084 834.469 232.967C835.994 232.85 837.05 232.673 837.681 232.432C838.663 232.051 839.367 231.523 839.821 230.855C840.261 230.188 840.481 229.264 840.481 228.077V182.369C840.481 181.336 840.32 180.463 839.997 179.767C839.674 179.07 838.897 178.491 837.681 178.014C836.786 177.655 835.672 177.325 834.323 177.01C832.974 176.702 831.86 176.511 831.01 176.453V173.264H859.439V176.453C858.516 176.482 857.431 176.592 856.155 176.79C854.88 176.98 853.765 177.222 852.812 177.523C851.683 177.874 850.921 178.454 850.54 179.26C850.159 180.059 849.968 180.946 849.968 181.921V227.585C849.968 228.567 850.173 229.432 850.613 230.188C851.039 230.943 851.771 231.543 852.812 231.991C853.443 232.226 854.454 232.482 855.861 232.768C857.269 233.046 858.456 233.2 859.439 233.237V236.42H859.438Z" fill="white"/>
<path fill-rule="evenodd" clip-rule="evenodd" d="M911.752 225.576C913.409 222.864 914.625 219.8 915.387 216.384C916.15 212.96 916.516 209.134 916.516 204.911C916.516 200.564 916.091 196.583 915.241 192.947C914.405 189.318 913.159 186.224 911.532 183.666C909.904 181.137 907.851 179.165 905.388 177.757C902.925 176.342 900.095 175.638 896.928 175.638C893.365 175.638 890.331 176.452 887.838 178.087C885.345 179.722 883.308 181.913 881.739 184.648C880.258 187.265 879.144 190.329 878.411 193.841C877.692 197.353 877.326 201.047 877.326 204.91C877.326 209.191 877.707 213.062 878.484 216.515C879.261 219.968 880.478 223.032 882.135 225.708C883.748 228.325 885.757 230.37 888.191 231.844C890.624 233.318 893.542 234.05 896.929 234.05C900.096 234.05 902.97 233.31 905.521 231.822C908.071 230.335 910.154 228.253 911.752 225.576ZM918.379 180.719C921.165 183.63 923.349 187.141 924.918 191.254C926.486 195.366 927.278 199.919 927.278 204.911C927.278 209.932 926.472 214.493 924.873 218.59C923.261 222.688 921.046 226.177 918.188 229.059C915.431 231.911 912.235 234.109 908.584 235.656C904.933 237.204 901.048 237.973 896.928 237.973C892.53 237.973 888.469 237.144 884.744 235.502C881.035 233.853 877.838 231.551 875.156 228.611C872.488 225.73 870.391 222.233 868.866 218.121C867.341 214.008 866.564 209.602 866.564 204.91C866.564 199.771 867.371 195.19 868.968 191.164C870.581 187.139 872.78 183.657 875.61 180.717C878.396 177.807 881.636 175.579 885.33 174.032C889.025 172.485 892.881 171.716 896.927 171.716C901.106 171.716 905.05 172.5 908.759 174.077C912.47 175.654 915.666 177.868 918.379 180.719Z" fill="white"/>
<path fill-rule="evenodd" clip-rule="evenodd" d="M1000 176.453C999.179 176.482 997.904 176.724 996.189 177.171C994.473 177.611 993.242 178.072 992.509 178.549C991.438 179.289 990.72 180.711 990.354 182.822C989.987 184.926 989.796 187.595 989.796 190.828V237.064H985.955L947.688 185.374V217.931C947.688 221.581 947.922 224.381 948.377 226.339C948.846 228.296 949.55 229.689 950.503 230.517C951.192 231.169 952.6 231.778 954.755 232.342C956.895 232.906 958.303 233.199 958.992 233.236V236.418H933.115V233.229C933.906 233.17 935.255 232.885 937.147 232.364C939.038 231.844 940.226 231.382 940.695 230.964C941.736 230.135 942.44 228.867 942.836 227.166C943.217 225.458 943.407 222.548 943.407 218.428V187.345C943.407 185.981 943.173 184.617 942.689 183.254C942.22 181.891 941.575 180.842 940.783 180.102C939.714 179.119 938.262 178.284 936.444 177.587C934.626 176.891 933.145 176.509 932.016 176.451V173.262H950.02L985.516 221.36V191.377C985.516 187.704 985.282 184.889 984.798 182.917C984.329 180.945 983.64 179.64 982.76 178.988C981.925 178.423 980.575 177.873 978.684 177.338C976.807 176.81 975.371 176.51 974.388 176.452L974.403 173.263H1000V176.453Z" fill="white"/>
<path fill-rule="evenodd" clip-rule="evenodd" d="M0 162.352C0 72.686 72.694 0 162.359 0C252.032 0 324.718 72.686 324.718 162.352C324.718 252.019 252.032 324.703 162.359 324.703C72.694 324.701 0 252.019 0 162.352ZM4.468 162.352C4.468 249.549 75.162 320.235 162.359 320.235C249.563 320.233 320.25 249.549 320.25 162.352C320.25 75.155 249.563 4.468 162.359 4.468C75.163 4.468 4.468 75.155 4.468 162.352Z" fill="white"/>
<path d="M33.319 164.099L32.723 164.095C32.608 162.351 32.482 162.18 30.676 162.167L22.174 162.104C20.366 162.091 20.238 162.26 20.097 164.002L19.501 163.998L19.543 158.364L20.139 158.369C20.254 160.112 20.38 160.284 22.188 160.298L30.69 160.361C32.519 160.374 32.626 160.205 32.767 158.463L33.362 158.467L33.319 164.099Z" fill="white"/>
<path d="M21.792 139.222C21.724 140.412 21.942 140.95 22.863 141.137C23.486 141.291 24.433 141.438 26.399 141.656L34.914 142.597L34.841 143.252L22.775 151.029L22.771 151.071L28.073 151.658C30.017 151.873 31.037 151.921 31.657 151.925C32.747 151.939 33.052 151.481 33.298 150.053L33.889 150.118L33.336 155.125L32.744 155.06C32.816 153.828 32.6 153.268 31.576 153.049C30.929 152.913 29.922 152.737 27.978 152.523L23.329 152.009C21.787 151.838 21.698 151.872 21.149 152.196C20.574 152.56 20.354 153.005 20.16 153.989L19.567 153.924L19.913 150.797L31.494 143.158L31.501 143.095L26.303 142.521C24.359 142.306 23.378 142.283 22.78 142.281C21.818 142.281 21.487 142.758 21.242 144.206L20.65 144.141L21.202 139.155L21.792 139.222Z" fill="white"/>
<path d="M27.924 124.428C26.877 124.417 26.316 124.479 25.927 124.648C25.351 124.859 25.122 125.176 24.75 126.726L24.398 128.193L34.565 130.632C36.196 131.024 36.443 130.908 37.038 128.975L37.617 129.113L36.194 135.045L35.617 134.905C35.943 132.994 35.776 132.78 34.145 132.388L23.977 129.949L23.669 131.23C23.259 132.945 23.325 133.398 23.735 133.781C24.028 134.113 24.566 134.417 25.416 134.883L25.272 135.482C24.057 135.082 22.74 134.656 21.613 134.342L21.712 133.928C22.257 133.754 22.363 133.494 22.501 132.917L24.459 124.754C24.592 124.195 24.508 124.001 24.195 123.576L24.299 123.143C25.25 123.371 26.783 123.629 28.007 123.814L27.924 124.428Z" fill="white"/>
<path d="M39.747 112.054C40.364 112.413 42.095 113.493 42.65 113.898L39.16 123.53L38.601 123.327C39.12 121.459 39.017 121.24 37.4 120.654L29.445 117.772C27.648 117.121 27.53 117.259 26.825 118.766L26.266 118.563L29.494 109.65C29.995 109.831 31.39 110.224 32.43 110.533L32.32 111.149C31.417 111.025 30.904 111.065 30.37 111.166C29.847 111.293 29.513 111.782 28.992 113.22L28.443 114.739C28.218 115.359 28.244 115.413 28.842 115.631L33.379 117.275L34.06 115.397C34.712 113.598 34.587 113.44 33.343 112.695L33.553 112.115L37.389 113.506L37.179 114.085C35.647 113.823 35.475 113.92 34.847 115.658L34.158 117.557L37.934 118.925C38.874 119.266 39.337 119.298 39.726 119.033C40.104 118.74 40.378 118.047 40.741 117.049C41.292 115.53 41.334 114.912 40.974 114.285C40.697 113.8 40.155 113.174 39.45 112.625L39.747 112.054Z" fill="white"/>
<path d="M49.792 99.252C49.68 99.481 49.576 99.69 49.443 99.91C48.659 101.301 47.845 101.893 46.181 102.137C44.918 102.342 43.396 102.443 42.179 102.553C41.487 102.612 41.097 102.823 40.607 103.814L40.305 104.424L43.334 105.924C44.953 106.726 45.152 106.611 46.022 105.142L46.554 105.407L44.073 110.418L43.538 110.154C44.199 108.535 44.169 108.306 42.549 107.505L34.891 103.712C33.271 102.91 33.138 103.034 32.269 104.454L31.735 104.189L34.075 99.464C34.764 98.073 35.396 97.224 36.231 96.736C37.104 96.219 38.208 96.148 39.35 96.715C40.99 97.526 41.499 99.036 41.411 100.748C42.198 100.736 43.872 100.567 45.013 100.42C46.343 100.225 47.037 100.07 47.76 99.858C48.585 99.627 49.011 99.292 49.335 98.929L49.792 99.252ZM40.128 103.198C40.61 102.226 40.768 101.522 40.624 100.858C40.42 99.831 39.808 99.149 38.781 98.639C36.723 97.621 35.289 98.596 34.574 100.044C34.301 100.597 34.215 100.958 34.255 101.168C34.284 101.349 34.475 101.538 34.989 101.792L39.677 104.113L40.128 103.198Z" fill="white"/>
<path d="M55.425 90.116L54.927 89.79C55.52 88.577 55.483 88.324 54.639 88.101C53.796 87.876 52.603 87.602 51.262 87.28L48.776 91.063C49.388 91.871 49.959 92.629 50.554 93.35C51.416 94.476 51.698 94.433 52.699 93.182L53.196 93.51L50.663 97.364L50.166 97.037C50.741 95.813 50.797 95.495 49.643 93.846L42.734 84.04L42.937 83.385C46.717 84.292 50.872 85.319 54.711 86.214C56.611 86.649 56.924 86.523 57.788 85.439L58.286 85.765L55.425 90.116ZM44.778 85.612L44.755 85.648C45.909 87.221 47.082 88.804 48.186 90.295L50.334 87.027L44.778 85.612Z" fill="white"/>
<path d="M65.306 71.865C65.859 72.722 66.717 74.142 67.006 74.887C66.736 75.437 65.911 77.075 64.925 78.245C61.51 82.287 57.224 81.7 54.643 79.52C51.233 76.643 51.197 72.107 54.252 68.486C55.362 67.171 56.652 66.368 57.117 65.982C58.152 66.633 58.884 67.084 59.843 67.727L59.545 68.311C57.467 67.279 55.946 67.664 54.466 69.418C52.178 72.13 53.247 75.508 55.714 77.591C58.751 80.154 62.337 80.122 64.421 77.654C65.819 75.998 65.666 74.367 64.729 72.184L65.306 71.865Z" fill="white"/>
<path d="M71.0569 56.673C70.1889 56.087 69.6859 55.83 69.2669 55.755C68.6699 55.615 68.3049 55.752 67.1389 56.841L66.0379 57.872L73.1789 65.515C74.3259 66.741 74.5949 66.781 76.1589 65.495L76.5659 65.929L72.1069 70.096L71.6999 69.661C73.0259 68.247 73.0049 67.976 71.8599 66.749L64.716 59.107L63.7529 60.007C62.4639 61.212 62.2699 61.627 62.4029 62.173C62.4629 62.61 62.7449 63.162 63.1959 64.02L62.7469 64.442C61.9529 63.437 61.0869 62.355 60.3199 61.472L60.6299 61.181C61.1819 61.335 61.4129 61.177 61.8469 60.771L67.9829 55.037C68.4019 54.645 68.4399 54.435 68.4119 53.908L68.7379 53.603C69.4069 54.317 70.5429 55.379 71.4639 56.207L71.0569 56.673Z" fill="white"/>
<path d="M81.201 62.001L80.836 61.531C82.136 60.362 82.192 60.158 81.085 58.73L75.879 52.009C74.773 50.58 74.561 50.584 73.104 51.55L72.739 51.08L77.194 47.631L77.558 48.102C76.256 49.27 76.202 49.475 77.307 50.902L82.514 57.623C83.634 59.068 83.833 59.048 85.289 58.082L85.653 58.552L81.201 62.001Z" fill="white"/>
<path d="M96.3249 43.108C98.7529 47.001 97.5179 51.078 94.2199 53.135C90.9579 55.171 86.7759 54.25 84.6179 50.79C82.5939 47.546 82.9859 43.12 86.7699 40.758C89.8349 38.847 94.0769 39.505 96.3249 43.108ZM86.1409 49.139C88.2559 52.527 91.6529 53.837 94.1939 52.252C96.1939 51.003 96.9509 48.203 94.7909 44.743C92.4169 40.941 89.1759 40.159 86.8169 41.633C84.7979 42.892 84.0399 45.769 86.1409 49.139Z" fill="white"/>
<path d="M110.67 29.587C109.614 30.133 109.263 30.595 109.569 31.483C109.753 32.099 110.109 32.988 110.921 34.789L114.442 42.593L113.842 42.863L101.013 36.437L100.974 36.454L103.168 41.315C103.971 43.097 104.448 44 104.76 44.536C105.302 45.48 105.853 45.511 107.204 44.995L107.448 45.537L102.859 47.608L102.614 47.065C103.713 46.5 104.083 46.03 103.752 45.037C103.538 44.411 103.178 43.455 102.374 41.673L100.452 37.412C99.814 35.999 99.74 35.939 99.181 35.631C98.575 35.322 98.081 35.359 97.136 35.692L96.892 35.15L99.757 33.857L112.217 39.936L112.275 39.91L110.127 35.146C109.323 33.364 108.843 32.509 108.54 31.993C108.052 31.165 107.473 31.123 106.101 31.648L105.857 31.105L110.429 29.044L110.67 29.587Z" fill="white"/>
<path d="M128.046 23.668C130.67 23.039 132.741 23.112 134.314 24.024C135.563 24.774 136.647 26.109 137.111 28.051C137.706 30.531 137.195 32.596 135.892 34.176C134.629 35.745 132.707 36.751 130.165 37.36L125.268 38.532L125.135 37.974C126.882 37.424 127.018 37.26 126.598 35.504L124.615 27.219C124.189 25.442 124.003 25.399 122.385 25.656L122.241 25.057L128.046 23.668ZM128.34 34.934C128.716 36.504 129.492 36.733 130.999 36.372C134.864 35.448 135.95 32.13 135.157 28.824C134.648 26.695 133.422 25.045 131.537 24.469C130.464 24.092 129.206 24.132 127.822 24.462C126.954 24.67 126.441 24.902 126.269 25.096C126.097 25.29 126.09 25.532 126.283 26.338L128.34 34.934Z" fill="white"/>
<path d="M152.416 30.223C152.369 30.934 152.178 32.967 152.064 33.644L141.89 34.827L141.82 34.235C143.724 33.864 143.872 33.675 143.674 31.966L142.696 23.563C142.475 21.663 142.3 21.62 140.636 21.663L140.567 21.072L149.982 19.978C150.043 20.506 150.316 21.929 150.505 22.997L149.906 23.175C149.612 22.311 149.347 21.87 149.018 21.438C148.673 21.029 148.085 20.948 146.564 21.124L144.961 21.311C144.305 21.387 144.268 21.434 144.341 22.067L144.899 26.859L146.884 26.629C148.784 26.408 148.868 26.227 148.979 24.781L149.591 24.71L150.062 28.763L149.45 28.835C148.998 27.346 148.837 27.236 147 27.45L144.996 27.684L145.46 31.674C145.574 32.666 145.753 33.094 146.164 33.325C146.595 33.531 147.337 33.467 148.392 33.343C149.996 33.157 150.567 32.92 150.969 32.316C151.278 31.853 151.595 31.089 151.771 30.211L152.416 30.223Z" fill="white"/>
<path d="M163.076 22.75C162.689 21.391 162.132 19.926 160.284 19.933C158.647 19.938 157.929 21.131 157.932 22.279C157.937 23.831 158.96 24.55 160.643 25.416C162.302 26.259 164.325 27.252 164.333 29.632C164.339 31.863 162.455 33.655 159.629 33.665C158.758 33.668 158.077 33.5 157.544 33.353C157.011 33.163 156.693 33.016 156.501 32.91C156.33 32.464 156.046 30.637 155.916 29.618L156.531 29.467C156.876 30.762 157.84 32.906 160.029 32.898C161.624 32.893 162.575 31.89 162.571 30.339C162.565 28.766 161.394 28.027 159.797 27.182C158.435 26.464 156.285 25.409 156.275 23.007C156.269 20.967 157.9 19.218 160.642 19.209C161.618 19.205 162.512 19.437 163.32 19.689C163.408 20.454 163.517 21.283 163.691 22.621L163.076 22.75Z" fill="white"/>
<path d="M167.551 33.394L167.587 32.8C169.335 32.779 169.512 32.662 169.623 30.858L170.143 22.369C170.255 20.565 170.092 20.427 168.36 20.193L168.398 19.599L174.022 19.944L173.986 20.538C172.238 20.559 172.06 20.676 171.949 22.48L171.426 30.969C171.315 32.794 171.477 32.91 173.211 33.145L173.175 33.74L167.551 33.394Z" fill="white"/>
<path d="M190.955 30.355C189.666 30.341 189.564 30.431 189.364 31.669L189.077 33.453C188.957 34.187 188.871 34.861 188.906 35.448C187.553 35.553 185.76 35.737 184.081 35.466C179.466 34.721 176.846 31.35 177.517 27.196C178.303 22.328 182.587 20.588 186.7 21.252C188.44 21.533 189.982 22.255 190.629 22.51C190.573 23.255 190.493 24.425 190.436 25.837L189.829 25.868C189.737 23.228 188.255 22.278 186.263 21.956C183.054 21.438 180.325 23.408 179.698 27.289C179.21 30.309 180.425 34.122 184.472 34.775C185.185 34.89 185.86 34.848 186.359 34.691C186.815 34.53 187.108 34.318 187.25 33.437L187.536 31.654C187.78 30.144 187.654 29.994 185.627 29.494L185.718 28.928L191.046 29.788L190.955 30.355Z" fill="white"/>
<path d="M210.631 28.301C209.473 28.017 208.905 28.135 208.553 29.005C208.287 29.59 207.969 30.494 207.397 32.386L204.923 40.585L204.291 40.395L198.846 27.116L198.806 27.104L197.263 32.21C196.697 34.082 196.463 35.076 196.346 35.685C196.135 36.754 196.528 37.139 197.887 37.638L197.715 38.208L192.895 36.752L193.067 36.183C194.264 36.479 194.852 36.368 195.256 35.401C195.506 34.789 195.862 33.831 196.428 31.959L197.782 27.484C198.23 25.999 198.214 25.905 197.996 25.306C197.742 24.675 197.344 24.377 196.412 24.007L196.584 23.437L199.595 24.347L204.992 37.123L205.054 37.141L206.564 32.136C207.129 30.265 207.332 29.304 207.443 28.716C207.616 27.77 207.21 27.357 205.83 26.852L206.002 26.282L210.803 27.733L210.631 28.301Z" fill="white"/>
<path d="M228.636 39.355C228.866 38.519 228.932 38.1 228.867 37.568C228.831 36.883 228.489 36.522 227.044 35.798L225.601 35.074C225.049 34.797 224.975 34.807 224.696 35.358L222.428 39.879L224.385 40.861C226.113 41.729 226.276 41.596 227.132 40.503L227.664 40.77L225.835 44.418L225.303 44.151C225.705 42.735 225.743 42.47 224.014 41.602L222.057 40.62L220.331 44.059C219.513 45.693 219.606 45.884 221.278 46.864L221.012 47.396L215.844 44.804L216.11 44.272C217.688 44.921 217.898 44.883 218.718 43.25L222.51 35.688C223.34 34.035 223.235 33.865 221.829 33.016L222.096 32.484L230.455 36.678C230.112 37.362 229.597 38.625 229.244 39.566L228.636 39.355Z" fill="white"/>
<path d="M243.076 52.535C240.545 56.368 236.321 56.941 233.074 54.798C229.862 52.678 228.958 48.49 231.207 45.083C233.314 41.889 237.507 40.401 241.234 42.861C244.249 44.852 245.418 48.986 243.076 52.535ZM233.345 45.782C231.143 49.117 231.367 52.754 233.868 54.405C235.838 55.705 238.702 55.226 240.95 51.819C243.422 48.076 242.782 44.8 240.457 43.265C238.47 41.954 235.535 42.463 233.345 45.782Z" fill="white"/>
<path d="M261.288 59.879C260.27 59.106 259.707 59.009 259.054 59.596C258.629 59.987 257.998 60.649 256.713 62.124L255.555 63.455C253.907 65.347 252.432 66.458 250.652 66.627C249.243 66.755 247.876 66.156 246.817 65.235C245.888 64.425 245.154 63.391 244.924 62.232C244.603 60.657 245.202 59.063 246.835 57.188L250.324 53.18C251.581 51.738 251.508 51.561 250.34 50.347L250.731 49.898L254.883 53.513L254.491 53.962C253.154 52.94 252.943 52.924 251.688 54.367L248.504 58.022C246.258 60.604 245.999 62.97 247.988 64.702C250.297 66.711 252.692 65.416 254.996 62.77L256.057 61.552C257.341 60.077 257.881 59.361 258.247 58.809C258.696 58.1 258.527 57.615 257.476 56.557L257.867 56.108L261.682 59.43L261.288 59.879Z" fill="white"/>
<path d="M274.133 74.053C273.299 73.201 272.756 73 271.997 73.554C271.462 73.911 270.716 74.511 269.232 75.815L262.8 81.469L262.364 80.974L264.752 66.823L264.725 66.791L260.717 70.312C259.248 71.603 258.523 72.324 258.105 72.779C257.36 73.574 257.492 74.11 258.382 75.251L257.935 75.643L254.609 71.86L255.057 71.468C255.918 72.351 256.477 72.568 257.328 71.959C257.865 71.573 258.672 70.948 260.142 69.657L263.654 66.571C264.819 65.546 264.853 65.458 264.985 64.835C265.103 64.164 264.921 63.701 264.327 62.894L264.774 62.501L266.851 64.864L264.689 78.563L264.732 78.611L268.658 75.159C270.126 73.869 270.805 73.159 271.209 72.719C271.856 72.008 271.727 71.442 270.825 70.285L271.27 69.892L274.582 73.659L274.133 74.053Z" fill="white"/>
<path d="M280.872 82.594C282.365 84.842 283.009 86.812 282.694 88.603C282.421 90.035 281.539 91.512 279.875 92.618C277.751 94.029 275.634 94.26 273.701 93.579C271.792 92.933 270.187 91.473 268.741 89.296L265.954 85.1L266.432 84.783C267.551 86.235 267.749 86.307 269.255 85.307L276.355 80.594C277.877 79.583 277.854 79.394 277.054 77.96L277.568 77.619L280.872 82.594ZM270.39 86.748C269.045 87.641 269.096 88.448 269.954 89.742C272.152 93.052 275.642 92.929 278.474 91.048C280.296 89.837 281.426 88.118 281.318 86.149C281.302 85.011 280.834 83.844 280.045 82.657C279.552 81.913 279.158 81.511 278.916 81.416C278.676 81.322 278.445 81.398 277.755 81.857L270.39 86.748Z" fill="white"/>
<path d="M278.709 106.488L279.243 106.223C279.991 107.346 280.229 107.442 280.848 106.825C281.467 106.208 282.306 105.316 283.258 104.32L281.24 100.267C280.232 100.389 279.29 100.501 278.369 100.651C276.961 100.829 276.856 101.096 277.435 102.589L276.901 102.854L274.845 98.725L275.379 98.46C276.147 99.573 276.394 99.783 278.398 99.615L290.349 98.581L290.815 99.086C288.129 101.895 285.148 104.97 282.443 107.835C281.109 109.259 281.061 109.591 281.564 110.885L281.031 111.15L278.709 106.488ZM287.96 99.556L287.943 99.518C286.002 99.724 284.044 99.939 282.2 100.145L283.942 103.646L287.96 99.556Z" fill="white"/>
<path d="M295.29 119.457C296.168 118.887 296.602 118.526 296.833 118.169C297.195 117.674 297.211 117.284 296.664 115.786L296.145 114.37L286.321 117.96C284.745 118.536 284.604 118.769 285.176 120.71L284.618 120.914L282.523 115.184L283.082 114.98C283.866 116.753 284.125 116.84 285.701 116.263L295.526 112.673L295.073 111.435C294.466 109.778 294.16 109.437 293.606 109.345C293.179 109.23 292.561 109.274 291.594 109.356L291.383 108.778C292.619 108.439 293.953 108.065 295.066 107.704L295.211 108.103C294.853 108.55 294.91 108.824 295.113 109.383L297.994 117.27C298.192 117.809 298.369 117.926 298.867 118.106L299.018 118.525C298.1 118.86 296.68 119.493 295.558 120.016L295.29 119.457Z" fill="white"/>
<path d="M286.418 126.684L286.993 126.533C287.559 128.186 287.725 128.319 289.474 127.86L297.698 125.699C299.444 125.24 299.524 125.043 299.204 123.324L299.78 123.173L301.212 128.621L300.636 128.772C300.07 127.119 299.902 126.986 298.155 127.446L289.933 129.606C288.165 130.071 288.105 130.262 288.424 131.98L287.848 132.131L286.418 126.684Z" fill="white"/>
<path d="M297.894 148.04C293.357 148.75 290.089 146.014 289.487 142.171C288.891 138.37 291.378 134.882 295.409 134.251C299.188 133.658 303.11 135.754 303.802 140.164C304.362 143.735 302.094 147.382 297.894 148.04ZM296.334 136.3C292.386 136.919 289.849 139.533 290.312 142.494C290.678 144.825 292.958 146.619 296.991 145.987C301.421 145.292 303.413 142.613 302.982 139.863C302.611 137.512 300.26 135.685 296.334 136.3Z" fill="white"/>
<path d="M304.823 166.324C304.717 165.137 304.423 164.636 303.485 164.585C302.844 164.523 301.887 164.514 299.911 164.585L291.352 164.891L291.329 164.232L302.135 154.786L302.134 154.743L296.802 154.934C294.849 155.004 293.83 155.104 293.216 155.19C292.137 155.335 291.9 155.833 291.867 157.28L291.271 157.302L291.093 152.267L291.688 152.246C291.795 153.475 292.089 153.996 293.133 154.066C293.795 154.105 294.816 154.133 296.771 154.062L301.443 153.897C302.995 153.841 303.078 153.796 303.573 153.395C304.089 152.952 304.242 152.478 304.291 151.477L304.886 151.456L304.997 154.6L294.653 163.837L294.655 163.901L299.879 163.715C301.833 163.645 302.807 163.525 303.4 163.441C304.352 163.301 304.61 162.781 304.644 161.312L305.237 161.291L305.415 166.304L304.823 166.324Z" fill="white"/>
<path fill-rule="evenodd" clip-rule="evenodd" d="M114.993 279.665L114.567 286.416H95.535V285.257C95.865 285.237 96.29 285.192 96.839 285.12C97.374 285.051 97.731 284.98 97.896 284.904C98.239 284.743 98.472 284.534 98.609 284.273C98.747 284.015 98.815 283.687 98.815 283.288V266.819C98.815 266.462 98.76 266.15 98.637 265.876C98.514 265.602 98.267 265.379 97.896 265.207C97.594 265.067 97.21 264.943 96.716 264.837C96.222 264.727 95.838 264.662 95.536 264.641V263.482H113.278V269.008H112.057C111.838 268.191 111.37 267.327 110.657 266.408C109.943 265.488 109.271 264.988 108.626 264.902C108.283 264.858 107.885 264.827 107.432 264.806C106.965 264.785 106.444 264.771 105.854 264.771H102.259V273.872H104.825C105.662 273.872 106.266 273.793 106.636 273.643C107.02 273.485 107.363 273.224 107.651 272.861C107.885 272.545 108.077 272.13 108.255 271.608C108.42 271.087 108.529 270.597 108.571 270.137H109.806V279.103H108.585C108.529 278.585 108.42 278.04 108.228 277.464C108.049 276.891 107.844 276.473 107.651 276.216C107.308 275.797 106.938 275.523 106.512 275.392C106.087 275.262 105.524 275.197 104.824 275.197L102.258 275.193V282.074C102.258 282.76 102.299 283.306 102.395 283.703C102.505 284.101 102.683 284.403 102.971 284.609C103.246 284.811 103.63 284.946 104.11 285.003C104.591 285.061 105.277 285.093 106.183 285.093C106.539 285.093 107.006 285.093 107.582 285.093C108.158 285.093 108.652 285.068 109.05 285.028C109.462 284.983 109.873 284.908 110.312 284.795C110.751 284.682 111.052 284.527 111.245 284.336C111.739 283.818 112.26 283.036 112.796 281.986C113.345 280.933 113.687 280.161 113.839 279.667H114.993V279.665Z" fill="white"/>
<path fill-rule="evenodd" clip-rule="evenodd" d="M127.466 278.632C127.905 279.02 128.248 279.466 128.481 279.973C128.714 280.477 128.838 281.095 128.838 281.826C128.838 283.301 128.289 284.505 127.192 285.442C126.094 286.378 124.667 286.845 122.911 286.845C121.992 286.845 121.141 286.674 120.372 286.334C119.59 285.991 119.027 285.679 118.698 285.398L118.383 286.451H117.148L116.983 280.921H118.108C118.205 281.347 118.383 281.841 118.657 282.403C118.931 282.965 119.274 283.476 119.672 283.933C120.084 284.406 120.591 284.808 121.181 285.134C121.758 285.46 122.416 285.622 123.143 285.622C124.172 285.622 124.968 285.389 125.517 284.919C126.08 284.446 126.355 283.773 126.355 282.895C126.355 282.442 126.272 282.054 126.093 281.725C125.915 281.395 125.654 281.111 125.311 280.86C124.954 280.613 124.515 280.39 124.008 280.191C123.5 279.992 122.924 279.797 122.293 279.601C121.786 279.45 121.223 279.244 120.605 278.984C119.988 278.72 119.466 278.411 119.027 278.055C118.561 277.678 118.162 277.215 117.874 276.669C117.573 276.12 117.422 275.475 117.422 274.731C117.422 273.431 117.902 272.33 118.876 271.424C119.836 270.521 121.126 270.069 122.759 270.069C123.376 270.069 124.008 270.148 124.666 270.313C125.311 270.474 125.846 270.666 126.244 270.893L126.615 270.001H127.781L128.014 275.133H126.888C126.655 273.998 126.175 273.075 125.434 272.361C124.693 271.651 123.787 271.294 122.717 271.294C121.839 271.294 121.152 271.517 120.645 271.963C120.15 272.406 119.904 272.945 119.904 273.572C119.904 274.052 119.986 274.457 120.151 274.78C120.316 275.103 120.563 275.377 120.892 275.607C121.222 275.816 121.619 276.023 122.113 276.207C122.593 276.399 123.197 276.609 123.911 276.845C124.625 277.075 125.297 277.336 125.915 277.638C126.546 277.936 127.067 278.269 127.466 278.632Z" fill="white"/>
<path fill-rule="evenodd" clip-rule="evenodd" d="M141.091 285.723C140.391 286.011 139.733 286.255 139.115 286.45C138.483 286.649 137.715 286.748 136.809 286.748C135.479 286.744 134.546 286.412 133.996 285.737C133.461 285.061 133.186 284.11 133.186 282.883V272.084H130.305V270.53H133.241V265.566H136.191V270.53H140.76V272.084H136.232V281.017C136.232 281.689 136.246 282.249 136.301 282.698C136.342 283.144 136.466 283.535 136.644 283.871C136.822 284.183 137.083 284.424 137.426 284.585C137.769 284.746 138.222 284.829 138.812 284.829C139.073 284.829 139.471 284.804 139.992 284.753C140.513 284.705 140.884 284.64 141.089 284.565V285.723H141.091Z" fill="white"/>
<path fill-rule="evenodd" clip-rule="evenodd" d="M148.267 284.564C148.267 285.164 148.047 285.682 147.622 286.107C147.183 286.532 146.661 286.749 146.057 286.749C145.454 286.745 144.932 286.533 144.493 286.107C144.054 285.681 143.834 285.164 143.834 284.564C143.834 283.96 144.054 283.435 144.493 283.003C144.932 282.564 145.454 282.345 146.057 282.345C146.661 282.345 147.183 282.564 147.622 283.003C148.047 283.435 148.267 283.96 148.267 284.564Z" fill="white"/>
<path fill-rule="evenodd" clip-rule="evenodd" d="M172.883 286.416H157.763V284.204C158.051 283.871 158.463 283.494 158.984 283.082C159.492 282.667 160.109 282.214 160.823 281.73C161.262 281.439 161.77 281.123 162.373 280.777C162.977 280.43 163.663 280.057 164.431 279.648C165.295 279.192 165.94 278.798 166.407 278.451C166.86 278.104 167.285 277.683 167.656 277.175C167.903 276.839 168.109 276.424 168.259 275.92C168.41 275.423 168.479 274.705 168.479 273.779C168.479 272.431 168.123 271.443 167.395 270.815C166.681 270.184 165.748 269.869 164.61 269.869C163.91 269.869 163.251 270.006 162.62 270.281C162.003 270.551 161.522 270.936 161.207 271.416C161.289 271.762 161.386 272.17 161.495 272.644C161.604 273.117 161.659 273.58 161.659 274.03C161.659 274.439 161.495 274.801 161.152 275.117C160.822 275.437 160.315 275.594 159.642 275.594C159.107 275.59 158.681 275.409 158.394 275.038C158.106 274.664 157.955 274.17 157.955 273.546C157.955 272.963 158.12 272.384 158.449 271.797C158.764 271.207 159.231 270.671 159.835 270.177C160.425 269.69 161.152 269.299 162.031 268.997C162.895 268.696 163.842 268.545 164.857 268.545C167.066 268.545 168.823 269.039 170.113 270.023C171.416 271.008 172.061 272.329 172.061 273.975C172.061 274.761 171.937 275.474 171.718 276.123C171.485 276.772 171.1 277.341 170.592 277.835C170.016 278.384 169.344 278.857 168.589 279.248C167.821 279.643 166.655 280.188 165.076 280.887C164.143 281.31 163.265 281.745 162.469 282.204C161.659 282.664 160.987 283.107 160.479 283.535H172.883V286.416V286.416Z" fill="white"/>
<path fill-rule="evenodd" clip-rule="evenodd" d="M188.609 277.737C188.609 275.164 188.17 273.175 187.291 271.757C186.413 270.344 185.219 269.634 183.696 269.634C182.173 269.634 180.965 270.344 180.073 271.757C179.195 273.174 178.743 275.164 178.743 277.737C178.743 280.179 179.168 282.141 180.019 283.624C180.87 285.112 182.077 285.854 183.669 285.854C185.261 285.854 186.482 285.113 187.332 283.624C188.183 282.141 188.609 280.179 188.609 277.737ZM190.132 271.312C190.818 272.142 191.34 273.117 191.669 274.235C192.013 275.349 192.191 276.516 192.191 277.737C192.191 279.205 191.971 280.516 191.56 281.678C191.135 282.838 190.558 283.798 189.817 284.564C189.062 285.353 188.171 285.949 187.128 286.348C186.099 286.746 184.946 286.944 183.67 286.944C182.27 286.944 181.035 286.715 179.952 286.252C178.854 285.785 177.976 285.151 177.29 284.341C176.576 283.497 176.055 282.513 175.698 281.387C175.355 280.259 175.177 279.044 175.177 277.737C175.177 276.454 175.342 275.274 175.684 274.193C176.028 273.113 176.549 272.135 177.276 271.264C177.962 270.424 178.854 269.758 179.952 269.274C181.036 268.783 182.285 268.543 183.684 268.543C185.166 268.543 186.428 268.79 187.485 269.288C188.54 269.786 189.432 270.458 190.132 271.312Z" fill="white"/>
<path fill-rule="evenodd" clip-rule="evenodd" d="M207.983 277.737C207.983 275.164 207.544 273.175 206.666 271.757C205.788 270.344 204.594 269.634 203.084 269.634C201.548 269.634 200.34 270.344 199.449 271.757C198.571 273.174 198.131 275.164 198.131 277.737C198.131 280.179 198.542 282.141 199.393 283.624C200.243 285.112 201.465 285.854 203.043 285.854C204.634 285.854 205.856 285.113 206.707 283.624C207.559 282.141 207.983 280.179 207.983 277.737ZM209.506 271.312C210.193 272.142 210.714 273.117 211.057 274.235C211.387 275.349 211.565 276.516 211.565 277.737C211.565 279.205 211.345 280.516 210.934 281.678C210.509 282.838 209.932 283.798 209.192 284.564C208.45 285.353 207.545 285.949 206.516 286.348C205.473 286.746 204.321 286.944 203.045 286.944C201.659 286.944 200.41 286.715 199.326 286.252C198.242 285.785 197.35 285.151 196.664 284.341C195.964 283.497 195.429 282.513 195.072 281.387C194.729 280.259 194.551 279.044 194.551 277.737C194.551 276.454 194.716 275.274 195.059 274.193C195.402 273.113 195.937 272.135 196.65 271.264C197.35 270.424 198.242 269.758 199.326 269.274C200.41 268.783 201.659 268.543 203.058 268.543C204.54 268.543 205.816 268.79 206.873 269.288C207.929 269.786 208.807 270.458 209.506 271.312Z" fill="white"/>
<path fill-rule="evenodd" clip-rule="evenodd" d="M229.183 286.416H214.062V284.204C214.35 283.871 214.748 283.494 215.27 283.082C215.791 282.667 216.409 282.214 217.123 281.73C217.548 281.439 218.069 281.123 218.673 280.777C219.276 280.43 219.963 280.057 220.731 279.648C221.581 279.192 222.24 278.798 222.707 278.451C223.16 278.104 223.585 277.683 223.955 277.175C224.202 276.839 224.408 276.424 224.559 275.92C224.71 275.423 224.778 274.705 224.778 273.779C224.778 272.431 224.421 271.443 223.694 270.815C222.981 270.184 222.048 269.869 220.908 269.869C220.209 269.869 219.55 270.006 218.918 270.281C218.287 270.551 217.821 270.936 217.505 271.416C217.587 271.762 217.684 272.17 217.793 272.644C217.902 273.117 217.957 273.58 217.957 274.03C217.957 274.439 217.793 274.801 217.45 275.117C217.107 275.437 216.613 275.594 215.94 275.594C215.405 275.59 214.979 275.409 214.692 275.038C214.404 274.664 214.253 274.17 214.253 273.546C214.253 272.963 214.418 272.384 214.747 271.797C215.063 271.207 215.529 270.671 216.133 270.177C216.722 269.69 217.45 269.299 218.328 268.997C219.206 268.696 220.139 268.545 221.154 268.545C223.363 268.545 225.105 269.039 226.409 270.023C227.713 271.008 228.358 272.329 228.358 273.975C228.358 274.761 228.234 275.474 228.001 276.123C227.782 276.772 227.398 277.341 226.889 277.835C226.313 278.384 225.654 278.857 224.886 279.248C224.118 279.643 222.952 280.188 221.373 280.887C220.44 281.31 219.562 281.745 218.752 282.204C217.956 282.664 217.284 283.107 216.776 283.535H229.18V286.416H229.183Z" fill="white"/>
<path fill-rule="evenodd" clip-rule="evenodd" d="M115.281 112.332C115.281 112.332 125.265 107.907 128.992 103.834C130.584 108.667 133.566 118.43 137.687 122.379C134.464 123.034 129.184 126.681 127.099 128.935C125.003 123.077 120.096 115.163 115.281 112.332ZM170.207 83.561C164.475 83.201 160.536 83.524 152.849 85.546C152.154 72.341 143.258 60.389 143.258 60.389C143.923 60.115 157.222 54.775 165.855 56.092C169.321 61.15 170.187 75.947 170.207 83.561ZM178.63 245.095C179.859 246.198 181.581 247.354 183.949 248.231L139.359 248.229C143.812 246.168 147.499 243.917 147.953 241.663C148.93 236.797 150.875 226.098 147.953 215.887C145.031 208.24 137.687 202.999 129.215 199.395C127.079 199.911 123.775 200.924 120.551 202.75C122.707 204.576 124.923 206.082 125.105 206.198C125.105 206.198 116.28 212.417 114.244 217.666C112.954 216.009 107.917 210.956 105.912 210.248C106.849 208.273 111.584 201.178 116.924 198.921C117.447 199.767 118.314 200.707 119.281 201.618C120.822 200.165 122.858 198.752 125.437 197.911C116.4 194.667 106.698 193.067 99.898 192.289C99.726 194.647 99.737 197.286 99.938 200.694C86.216 198.417 72.072 204.308 72.072 204.308C71.931 203.603 69.231 189.602 72.404 181.575C78.318 179.376 93.712 181.847 101.54 183.527C100.905 185.718 100.463 187.658 100.17 189.7C106.839 188.667 112.925 188.506 118.435 188.914C116.37 186.028 112.632 182.177 106.154 179.222C99.898 176.366 95.304 172.676 92.352 169.828C89.521 171.022 86.861 172.465 85.249 173.664C83.89 165.302 79.275 153.495 73.512 148.518C73.512 148.518 87.969 145.047 93.984 140.509C94.921 147.372 96.503 161.182 101.046 167.484C98.92 167.524 96.009 168.358 93.178 169.491C96.805 172.151 102.366 175.46 109.408 177.327C108.693 174.697 109.126 171.945 109.58 170.192C108.472 170.192 107.464 170.313 106.286 170.525C105.902 167.09 105.52 160.37 106.719 157.924C110.306 156.909 116.199 158.682 116.502 158.776C116.502 158.776 113.349 164.596 113.731 170.586C112.19 170.339 111.011 170.218 109.943 170.198C109.782 173.11 110.639 175.824 111.576 177.845C119.393 179.467 124.501 185.988 127 190.015C131.856 190.926 136.128 192.203 139.836 193.533C139.765 191.937 139.463 188.997 138.304 186.803C137.357 187.067 136.33 187.438 135.04 187.979C134.002 182.063 129.579 177.144 129.579 177.144C129.851 176.985 135.16 173.88 138.888 174.021C140.631 176.119 141.83 182.745 142.263 186.171C140.953 186.247 139.865 186.39 138.666 186.702C139.845 188.359 140.983 191.608 141.668 194.213C144.66 195.349 147.25 196.479 149.416 197.406C151.22 183.234 144.258 171.676 139.482 165.594C136.228 168.009 133.135 170.616 131.825 171.948C129.266 162.077 114.689 149.056 114.689 149.056C115.273 148.774 127.01 142.649 130.909 137.672C140.037 142.843 147.069 156.587 148.369 160.337C146.777 160.697 144.047 162.345 141.236 164.331C143.362 165.9 145.921 168.137 148.651 171.267C149.92 172.713 151.049 174.393 152.086 176.229C153.466 175.012 155.34 173.075 156.68 170.559C154.705 169.862 152.831 169.308 151.884 169.114C156.025 164.58 157.808 152.939 157.808 152.939C158.151 153.141 165.102 157.057 168.89 157.395C169.283 163.704 164.648 171.777 163.178 173.66C162.432 172.932 160.528 172.036 158.453 171.222C157.678 173.791 156.176 176.629 153.748 179.443C156.67 185.629 158.826 193.049 161.093 199.839C178.643 185.216 173.575 158.042 169.949 145.432C167.551 146.996 165.062 148.968 161.91 151.789C154.374 138.206 139.403 129.919 139.403 129.919C139.917 129.312 150.294 117.225 159.512 114.429C165.547 118.081 174.07 133.261 178.039 141.273C175.622 142.266 173.566 143.248 171.531 144.452C175.802 150.472 178.825 158.007 180.538 165.8C182.835 163.584 185.586 161.533 188.195 159.813C187.238 159.045 186.372 158.433 185.777 158.224C186.724 156.249 191.459 149.154 196.799 146.9C198.623 149.87 204.667 153.983 204.97 154.171C204.97 154.171 196.145 160.392 194.12 165.641C193.415 164.745 191.621 162.865 189.809 161.209C185.758 166.132 183.219 172.513 182.021 176.109C182.475 182.585 182.011 188.811 180.55 194.004C184.641 191.462 190.262 189.878 196.468 189.02C197.113 183.068 202.09 178.527 206.341 175.696C204.619 173.595 202.856 171.918 200.629 170.057C206.17 164.287 217.544 153.621 223.68 152.126C230.803 157 236.414 170.112 236.687 170.777C236.687 170.777 221.666 173.818 211.57 183.39C210.039 180.804 208.709 178.786 207.419 177.069C203.59 181.703 202.412 186.38 202.069 188.443C209.524 187.914 217.403 188.252 224.304 189.106C224.929 185.658 225.281 182.431 224.929 180.812C228.878 180.399 244.302 180.971 252.846 187.064C249.985 192.7 249.39 205.924 249.38 206.581C249.38 206.581 231.417 198.858 221.393 200.707C222.028 199.022 223.025 195.335 223.831 191.519C209.656 191.265 200.73 193.224 193.667 196.831C198.392 197.254 201.475 197.884 203.47 198.509C204.155 197.02 204.659 195.655 204.699 194.857C206.865 195.215 214.996 197.776 218.653 202.275C216.315 204.854 214.059 211.81 213.958 212.161C213.958 212.161 205.515 205.419 199.914 204.937C200.588 203.995 201.938 201.667 203.037 199.411C199.078 198.776 193.97 198.794 189.97 198.96C187.361 200.638 184.933 202.564 182.495 204.703C179.513 207.307 177.286 210.751 175.755 214.558C176.903 216.248 177.639 218.671 177.639 221.394C177.639 225.79 175.755 229.449 173.226 230.381C173.552 236.461 175.406 241.932 178.63 245.095ZM173.985 220.407C174.217 217.833 173.31 215.649 171.96 215.528C170.6 215.407 169.32 217.397 169.088 219.968C168.867 222.542 169.774 224.723 171.124 224.844C172.474 224.966 173.753 222.979 173.985 220.407ZM170.268 211.763C167.175 212.307 165.381 216.818 166.268 221.842C166.751 216.593 167.627 214.427 169.915 213.05C171.436 212.134 170.258 211.766 170.268 211.763ZM141.122 110.309C135.672 97.297 122.978 88.331 122.978 88.331C123.502 87.83 134.07 77.952 142.674 76.345C147.762 80.242 153.947 94.789 156.738 102.421C153.726 103.285 151.277 104.192 148.638 105.572C149.313 109.262 149.354 113.03 148.608 114.188C148.417 111.495 147.621 108.816 146.765 106.609C145.081 107.594 143.268 108.778 141.122 110.309ZM75.617 159.257C73.773 161.673 73.188 172.195 73.43 179.348C61.643 174.576 45.019 176.258 45.019 176.258C47.034 171.682 47.86 160.118 47.205 156.167C51.588 158.718 69.038 159.607 75.617 159.257ZM119.311 135.876C114.535 136.158 104.934 138.883 100.955 142.107C100.3 133.246 91.515 120.016 87.283 113.329C95.877 112.866 111.069 105.254 111.069 105.254C109.699 113.845 114.344 127.565 119.311 135.876ZM191.313 93.941C184.855 93.002 181.641 93.133 177.038 94.042C176.212 87.461 175.265 74.588 177.511 69.855C184.352 67.81 195.716 71.036 196.29 71.205C196.291 71.205 190.417 82.458 191.313 93.941ZM111.23 101.509C111.23 101.509 103.191 89.888 96.34 87.175C98.526 85.497 105.196 78.975 106.143 76.345C108.712 77.604 117.95 83.881 120.842 90.888C116.923 93.241 111.483 101.114 111.23 101.509ZM205.217 134.526C214.203 129.713 223.411 112.465 223.411 112.465C223.824 112.969 232.549 122.925 238.302 125.537C235.441 135.632 223.744 145.719 220.399 147.861C219.745 146.528 217.82 144.531 215.523 142.471C212.289 146.125 208.31 151.521 207.141 156.966C208.28 150.76 210.798 145.163 213.7 140.894C210.445 138.138 206.91 135.537 205.217 134.526ZM248.447 183.794C249.263 180.399 244.972 169.09 241.395 161.695C255.993 161.216 272.646 151.718 272.646 151.718C272.666 157.456 277.18 169.974 279.699 173.822C273.916 173.18 255.187 180.366 248.447 183.794ZM233.597 142.8C241.576 137.682 251.65 127.688 254.189 119.555C254.189 119.555 264.183 132.859 271.518 137.015C264.889 141.03 251.419 148.797 246.976 156.267C244.891 151.711 237.667 145.135 233.597 142.8ZM195.374 104.119C198.316 98.225 204.481 81.874 203.887 76.839C207.252 79.015 218.183 82.881 223.18 82.861C223.18 82.861 214.999 97.426 214.657 110.143C208.199 107.068 198.326 103.391 195.374 104.119ZM188.835 133.161C187.223 139.543 183.667 147.177 180.513 150.903C183.898 144.37 185.107 136.834 185.54 131.887C182.84 130.96 180.13 130.325 178.145 130.361C182.457 123.897 183.545 110.042 184.23 103.152C190.406 107.469 204.983 110.413 204.983 110.413C199.402 115.591 195.211 127.56 194.153 135.967C192.876 135.083 190.971 134.078 188.835 133.161ZM160.183 95.28C163.578 95.638 171.285 93.763 173.723 92.517C172.978 95.897 176.04 107.451 177.632 111.662C175.678 110.961 168.706 112.783 164.102 114.427C164.747 105.753 160.183 95.28 160.183 95.28ZM252.255 99.54C252.255 99.54 244.155 105.617 240.851 114.188C236.529 111.286 234.161 110.279 230.535 109.345C232.207 104.328 235.965 94.741 239.199 92.105C244.83 92.991 251.893 99.222 252.255 99.54ZM75.829 136.919C73.048 129.481 60.677 120.598 60.677 120.598C61.111 120.328 69.694 114.618 72.303 110.45C79.809 113.705 86.377 123.771 87.687 126.567C84.835 127.537 77.682 134.592 75.829 136.919Z" fill="white"/>
<path d="M245.366 246.832H79.311V249.347H245.366V246.832Z" fill="white"/>
<path d="M69.71 262.95C69.404 262.95 69.099 262.839 68.857 262.614C44.545 239.933 29.313 209.304 25.968 176.367C25.898 175.68 26.399 175.067 27.086 174.997C27.775 174.934 28.386 175.429 28.456 176.115C31.739 208.449 46.693 238.519 70.563 260.786C71.068 261.257 71.095 262.048 70.624 262.553C70.378 262.816 70.045 262.95 69.71 262.95Z" fill="white"/>
<path d="M255.015 262.947C254.68 262.947 254.347 262.813 254.101 262.549C253.63 262.044 253.657 261.253 254.162 260.782C278.085 238.463 293.044 208.319 296.284 175.902C296.353 175.215 296.962 174.719 297.653 174.782C298.34 174.851 298.841 175.463 298.772 176.151C295.471 209.172 280.234 239.877 255.868 262.609C255.626 262.836 255.321 262.947 255.015 262.947Z" fill="white"/>
</g>
<defs>
<clipPath id="clip0">
<rect width="1000" height="324.703" fill="white"/>
</clipPath>
</defs>
</svg>
